<?xml version="1.0" standalone="no"?>
<!DOCTYPE svg PUBLIC "-//W3C//DTD SVG 20010904//EN"
 "http://www.w3.org/TR/2001/REC-SVG-20010904/DTD/svg10.dtd">
<svg version="1.0" xmlns="http://www.w3.org/2000/svg"
 width="360.000000pt" height="360.000000pt" viewBox="0 0 360.000000 360.000000"
 preserveAspectRatio="xMidYMid meet">

<g transform="translate(0.000000,360.000000) scale(0.100000,-0.100000)"
fill="#000000" stroke="none">
<path d="M1618 3145 c-455 -65 -843 -345 -1038 -750 -92 -190 -129 -339 -137
-555 -9 -225 31 -424 126 -624 182 -387 516 -653 945 -754 97 -23 133 -26 286
-26 156 0 188 3 290 27 461 108 811 406 981 833 72 182 106 421 88 612 -57
613 -481 1090 -1086 1222 -123 27 -328 34 -455 15z m432 -185 c548 -112 943
-601 943 -1165 -1 -461 -254 -866 -668 -1070 -181 -90 -391 -133 -582 -121
-558 33 -1006 424 -1114 971 -22 113 -17 380 9 486 90 363 310 639 639 803
238 119 504 152 773 96z"/>
<path d="M1952 2659 c-42 -13 -776 -742 -798 -794 -19 -47 -17 -102 5 -150 26
-56 732 -758 783 -780 66 -27 142 -12 196 38 53 49 68 135 36 200 -9 18 -148
165 -310 327 l-294 295 291 290 c160 160 299 307 310 327 24 47 24 108 0 156
-43 84 -125 118 -219 91z"/>
</g>
</svg>
